<svg width="18" height="18" viewBox="0 0 18 18" fill="none" xmlns="http://www.w3.org/2000/svg">
<path d="M8.22931 5.70294L8.38113 5.69881H14.5693C15.2541 5.69876 15.9129 5.9607 16.4108 6.43092C16.9086 6.90114 17.2077 7.54401 17.2467 8.2277L17.2508 8.38034V14.5685C17.2508 15.2534 16.9888 15.9124 16.5184 16.4103C16.048 16.9081 15.4049 17.2071 14.7211 17.2459L14.5693 17.25H8.38113C7.6962 17.25 7.03721 16.988 6.53935 16.5176C6.04149 16.0472 5.74251 15.4041 5.70373 14.7203L5.6996 14.5693V8.38116C5.69956 7.69623 5.96161 7.03724 6.43201 6.53938C6.9024 6.04153 7.54548 5.74254 8.22931 5.70376V5.70294ZM14.5693 6.93644H8.38113C8.01876 6.93645 7.66964 7.07272 7.40308 7.31819C7.13652 7.56366 6.972 7.90038 6.94218 8.26153L6.93723 8.38034V14.5685C6.93726 14.931 7.07364 15.2802 7.31929 15.5468C7.56493 15.8134 7.90186 15.9778 8.26314 16.0074L8.38113 16.0124H14.5693C14.9318 16.0123 15.281 15.876 15.5476 15.6303C15.8142 15.3847 15.9786 15.0477 16.0082 14.6865L16.0132 14.5685V8.38034C16.0132 7.99739 15.861 7.63013 15.5903 7.35935C15.3195 7.08856 14.9522 6.93644 14.5693 6.93644ZM11.4752 8.17489C11.6393 8.17489 11.7967 8.24009 11.9128 8.35614C12.0288 8.47219 12.094 8.62959 12.094 8.7937V10.8548H14.1567C14.3208 10.8548 14.4782 10.92 14.5943 11.036C14.7103 11.1521 14.7755 11.3095 14.7755 11.4736C14.7755 11.6377 14.7103 11.7951 14.5943 11.9111C14.4782 12.0272 14.3208 12.0924 14.1567 12.0924H12.094V14.1568C12.094 14.3209 12.0288 14.4783 11.9128 14.5943C11.7967 14.7104 11.6393 14.7756 11.4752 14.7756C11.3111 14.7756 11.1537 14.7104 11.0376 14.5943C10.9216 14.4783 10.8564 14.3209 10.8564 14.1568V12.0924H8.79367C8.62955 12.0924 8.47216 12.0272 8.35611 11.9111C8.24006 11.7951 8.17486 11.6377 8.17486 11.4736C8.17486 11.3095 8.24006 11.1521 8.35611 11.036C8.47216 10.92 8.62955 10.8548 8.79367 10.8548H10.8564V8.7937C10.8564 8.62959 10.9216 8.47219 11.0376 8.35614C11.1537 8.24009 11.3111 8.17489 11.4752 8.17489ZM11.9554 2.59154L11.9983 2.73758L12.5701 4.8729H11.2887L10.8036 3.05772C10.7546 2.87446 10.6699 2.70266 10.5545 2.55213C10.439 2.4016 10.295 2.2753 10.1307 2.18044C9.96646 2.08558 9.7851 2.02402 9.59702 1.99928C9.40893 1.97454 9.21782 1.98711 9.0346 2.03626L3.05768 3.63858C2.70878 3.73214 2.40762 3.95308 2.21363 4.25781C2.01965 4.56254 1.94693 4.92891 2.00983 5.28462L2.03623 5.40673L3.63854 11.3836C3.7137 11.6645 3.8719 11.9161 4.09242 12.1056C4.31295 12.2951 4.58554 12.4135 4.87452 12.4455V13.6881C4.33807 13.6561 3.82358 13.4638 3.3977 13.1361C2.97182 12.8083 2.65417 12.3602 2.4859 11.8498L2.443 11.7046L0.841506 5.72687C0.664116 5.06546 0.746486 4.36124 1.07173 3.75862C1.39697 3.15601 1.94044 2.70065 2.59069 2.48593L2.73755 2.44303L8.71446 0.841539C9.37587 0.664148 10.0801 0.746519 10.6827 1.07176C11.2853 1.397 11.7407 1.94047 11.9554 2.59072V2.59154Z" fill="#4880FF"/>
</svg>
