<svg width="15" height="15" viewBox="0 0 15 15" fill="none" xmlns="http://www.w3.org/2000/svg">
<path d="M10.0044 10.3773L11.232 9.14979C11.3973 8.98651 11.6065 8.87473 11.8342 8.82804C12.0618 8.78134 12.2981 8.80174 12.5144 8.88674L14.0104 9.48408C14.229 9.57279 14.4164 9.72422 14.549 9.91926C14.6817 10.1143 14.7536 10.3443 14.7557 10.5801V13.3202C14.7545 13.4806 14.7207 13.6392 14.6566 13.7863C14.5924 13.9333 14.4992 14.0659 14.3824 14.176C14.2657 14.286 14.1279 14.3714 13.9773 14.4268C13.8267 14.4822 13.6665 14.5066 13.5063 14.4984C3.0227 13.8463 0.907351 4.96842 0.507298 1.57071C0.488727 1.40386 0.505695 1.23497 0.557085 1.07515C0.608474 0.915324 0.693121 0.768193 0.805456 0.643433C0.917792 0.518674 1.05527 0.419113 1.20885 0.3513C1.36242 0.283488 1.52862 0.248962 1.6965 0.249992H4.34342C4.57962 0.250691 4.81021 0.322038 5.00553 0.454857C5.20085 0.587675 5.35197 0.775891 5.43945 0.995295L6.03679 2.49138C6.12461 2.70679 6.14702 2.9433 6.10121 3.17137C6.0554 3.39944 5.94341 3.60895 5.77922 3.77374L4.55167 5.0013C4.55167 5.0013 5.25861 9.78549 10.0044 10.3773Z" fill="white"/>
</svg>
