<svg width="14" height="11" viewBox="0 0 14 11" fill="none" xmlns="http://www.w3.org/2000/svg">
<path fill-rule="evenodd" clip-rule="evenodd" d="M6.81321 1.23753C4.60449 1.23753 2.58105 2.62062 1.28461 4.87868C1.12735 5.1526 1.12735 5.4892 1.28462 5.76311C2.58105 8.02115 4.60448 9.40422 6.81319 9.40422C9.02192 9.40422 11.0454 8.02113 12.3418 5.76306C12.4991 5.48915 12.4991 5.15255 12.3418 4.87863C11.0453 2.6206 9.02193 1.23753 6.81321 1.23753ZM0.272846 4.29779C1.71807 1.78058 4.07993 0.0708618 6.81321 0.0708618C9.54648 0.0708618 11.9083 1.78055 13.3536 4.29774C13.7174 4.93138 13.7174 5.71031 13.3536 6.34396C11.9083 8.86117 9.54647 10.5709 6.81319 10.5709C4.07992 10.5709 1.71808 8.8612 0.272852 6.34401C-0.0909483 5.71037 -0.0909508 4.93143 0.272846 4.29779ZM6.81315 4.15419C6.16882 4.15419 5.64648 4.67653 5.64648 5.32086C5.64648 5.96519 6.16882 6.48753 6.81315 6.48753C7.45748 6.48753 7.97982 5.96519 7.97982 5.32086C7.97982 4.67653 7.45748 4.15419 6.81315 4.15419ZM4.47982 5.32086C4.47982 4.0322 5.52449 2.98753 6.81315 2.98753C8.10182 2.98753 9.14649 4.0322 9.14649 5.32086C9.14649 6.60953 8.10182 7.65419 6.81315 7.65419C5.52449 7.65419 4.47982 6.60953 4.47982 5.32086Z" fill="#545B7B"/>
</svg>
