<svg width="16" height="16" viewBox="0 0 16 16" fill="none" xmlns="http://www.w3.org/2000/svg">
<path fill-rule="evenodd" clip-rule="evenodd" d="M8.00005 0.499988C8.41426 0.499988 8.75005 0.835774 8.75005 1.24999V7.24999H14.75C15.1643 7.24999 15.5 7.58577 15.5 7.99999C15.5 8.4142 15.1643 8.74999 14.75 8.74999H8.75005V14.75C8.75005 15.1642 8.41426 15.5 8.00005 15.5C7.58584 15.5 7.25005 15.1642 7.25005 14.75V8.74999H1.25005C0.835835 8.74999 0.500049 8.4142 0.500049 7.99999C0.500049 7.58577 0.835835 7.24999 1.25005 7.24999H7.25005V1.24999C7.25005 0.835774 7.58584 0.499988 8.00005 0.499988Z" fill="#131935"/>
<path fill-rule="evenodd" clip-rule="evenodd" d="M8.00005 0.424988C8.45568 0.424988 8.82505 0.794353 8.82505 1.24999V7.17499H14.75C15.2057 7.17499 15.575 7.54435 15.575 7.99999C15.575 8.45562 15.2057 8.82499 14.75 8.82499H8.82505V14.75C8.82505 15.2056 8.45568 15.575 8.00005 15.575C7.54441 15.575 7.17505 15.2056 7.17505 14.75V8.82499H1.25005C0.794414 8.82499 0.425049 8.45562 0.425049 7.99999C0.425049 7.54435 0.794414 7.17499 1.25005 7.17499H7.17505V1.24999C7.17505 0.794353 7.54441 0.424988 8.00005 0.424988ZM8.75005 1.24999C8.75005 0.835774 8.41426 0.499988 8.00005 0.499988C7.58584 0.499988 7.25005 0.835774 7.25005 1.24999V7.24999H1.25005C0.835835 7.24999 0.500049 7.58577 0.500049 7.99999C0.500049 8.4142 0.835835 8.74999 1.25005 8.74999H7.25005V14.75C7.25005 15.1642 7.58584 15.5 8.00005 15.5C8.41426 15.5 8.75005 15.1642 8.75005 14.75V8.74999H14.75C15.1643 8.74999 15.5 8.4142 15.5 7.99999C15.5 7.58577 15.1643 7.24999 14.75 7.24999H8.75005V1.24999Z" fill="#131935"/>
</svg>
