<svg width="16" height="16" viewBox="0 0 16 16" fill="none" xmlns="http://www.w3.org/2000/svg">
<path fill-rule="evenodd" clip-rule="evenodd" d="M9.43577 1.60544C10.8764 0.140247 13.2352 0.13028 14.6881 1.58325C16.1325 3.02757 16.1325 5.36929 14.6881 6.81362L11.987 9.51475C10.7049 10.7968 8.6386 10.8357 7.30926 9.60266L6.54624 8.89494C6.27314 8.64163 6.2571 8.2149 6.5104 7.9418C6.76371 7.66871 7.19044 7.65266 7.46354 7.90596L8.22656 8.61369C9.02416 9.35348 10.264 9.33018 11.0332 8.56094L13.7343 5.85981C14.6519 4.94226 14.6519 3.45461 13.7343 2.53705C12.8113 1.61401 11.3128 1.62034 10.3976 2.55115L8.16025 4.82665C7.8991 5.09225 7.47208 5.09586 7.20647 4.83471C6.94087 4.57356 6.93726 4.14654 7.19841 3.88094L9.43577 1.60544ZM8.0462 7.38631C7.2486 6.64652 6.00879 6.66982 5.23955 7.43906L2.53842 10.1402C1.62087 11.0577 1.62087 12.5454 2.53843 13.4629C3.46147 14.386 4.95995 14.3797 5.87516 13.4488L8.11252 11.1734C8.37367 10.9077 8.80069 10.9041 9.06629 11.1653C9.33189 11.4264 9.3355 11.8535 9.07435 12.1191L6.837 14.3946C5.39636 15.8598 3.03758 15.8697 1.58462 14.4168C0.140292 12.9724 0.140291 10.6307 1.58462 9.18638L4.28575 6.48525C5.56781 5.20318 7.63416 5.16435 8.9635 6.39734L9.72652 7.10506C9.99962 7.35837 10.0157 7.7851 9.76236 8.0582C9.50906 8.33129 9.08233 8.34734 8.80923 8.09403L8.0462 7.38631Z" fill="#878D99"/>
</svg>
