<svg width="12" height="12" viewBox="0 0 12 12" fill="none" xmlns="http://www.w3.org/2000/svg">
<path fill-rule="evenodd" clip-rule="evenodd" d="M3 2C3 0.895431 3.89543 0 5 0H7C8.10457 0 9 0.895431 9 2H11.5C11.7761 2 12 2.22386 12 2.5C12 2.77614 11.7761 3 11.5 3H10.9756L10.6681 9.14981C10.5883 10.7464 9.2705 12 7.67188 12H4.32812C2.7295 12 1.4117 10.7464 1.33187 9.14981L1.02438 3H0.5C0.223858 3 0 2.77614 0 2.5C0 2.22386 0.223858 2 0.5 2H3ZM2.02562 3L2.33062 9.09987C2.38384 10.1643 3.26237 11 4.32812 11H7.67188C8.73762 11 9.61616 10.1643 9.66938 9.09987L9.97437 3H2.02562ZM8 2H4C4 1.44772 4.44772 1 5 1H7C7.55228 1 8 1.44772 8 2ZM4.5 5C4.77614 5 5 5.22386 5 5.5V8C5 8.27614 4.77614 8.5 4.5 8.5C4.22386 8.5 4 8.27614 4 8V5.5C4 5.22386 4.22386 5 4.5 5ZM7.5 5C7.77614 5 8 5.22386 8 5.5V8C8 8.27614 7.77614 8.5 7.5 8.5C7.22386 8.5 7 8.27614 7 8V5.5C7 5.22386 7.22386 5 7.5 5Z" fill="#545B7B"/>
</svg>
