<svg width="18" height="18" viewBox="0 0 18 18" fill="none" xmlns="http://www.w3.org/2000/svg">
<path d="M3.59759 12.9803L3.59771 12.9804C4.22557 13.7607 5.0211 14.3896 5.92527 14.8204C6.82943 15.2513 7.81901 15.4729 8.82055 15.469L8.82075 15.469C12.4805 15.469 15.4457 12.5713 15.4457 9C15.4457 5.42872 12.4805 2.531 8.82075 2.531H8.82056C7.83331 2.5272 6.85753 2.74259 5.96362 3.16161C5.0697 3.58063 4.27994 4.19285 3.6513 4.95409L3.65121 4.95421C3.55811 5.06624 3.42503 5.13759 3.28019 5.15312C3.13541 5.16865 2.99027 5.12716 2.87556 5.03747C2.81903 4.99382 2.77186 4.93924 2.73683 4.87699C2.70178 4.81469 2.67962 4.74598 2.67166 4.67494C2.66371 4.6039 2.67013 4.53198 2.69054 4.46348C2.71094 4.39499 2.7449 4.3313 2.79041 4.27621M3.59759 12.9803L2.829 4.308M3.59759 12.9803C3.50595 12.8672 3.37389 12.7943 3.22939 12.7769C3.08496 12.7595 2.93945 12.799 2.82365 12.8871C2.76659 12.93 2.71873 12.984 2.68292 13.0457C2.6471 13.1075 2.62407 13.1759 2.61519 13.2468C2.60631 13.3176 2.61177 13.3896 2.63124 13.4583C2.6507 13.527 2.68376 13.5911 2.72846 13.6467L3.59759 12.9803ZM2.79041 4.27621C2.79043 4.27619 2.79044 4.27617 2.79045 4.27615L2.829 4.308M2.79041 4.27621C2.7904 4.27622 2.79038 4.27624 2.79037 4.27626L2.829 4.308M2.79041 4.27621C4.24805 2.50231 6.44593 1.45022 8.82 1.45V1.5C6.46079 1.50022 4.2771 2.54569 2.829 4.308M9.61433 9.54051L2.00311 9.54125C2.003 9.54125 2.00289 9.54125 2.00279 9.54125H2.0025L2.0025 9.49125L9.61433 9.54051ZM9.61433 9.54051L8.53938 10.6162L8.53905 10.6165C8.48874 10.6678 8.44905 10.7285 8.42223 10.7952C8.39541 10.8618 8.38201 10.9331 8.38277 11.005C8.38354 11.0768 8.39847 11.1478 8.4267 11.2139C8.45485 11.2798 8.49568 11.3395 8.54687 11.3896M9.61433 9.54051L9.58284 8.4595L8.50006 7.37601C8.49998 7.37594 8.49991 7.37587 8.49984 7.3758C8.44855 7.32563 8.40764 7.26585 8.37945 7.19987C8.35122 7.1338 8.33629 7.06281 8.33552 6.99096C8.33476 6.91912 8.34816 6.84783 8.37498 6.78117C8.4018 6.71451 8.44149 6.65379 8.4918 6.60249L8.4926 6.60168L8.49261 6.60169C8.59625 6.5007 8.73572 6.44494 8.88042 6.44665C9.02512 6.44835 9.16324 6.50737 9.26448 6.61077L9.27875 6.62535V6.62579L11.2944 8.64139C11.5096 8.85662 11.5149 9.20178 11.3026 9.41409C11.3026 9.4141 11.3026 9.4141 11.3026 9.4141L9.32037 11.3978L9.31997 11.3982C9.26862 11.4485 9.20786 11.4881 9.14117 11.5149C9.07448 11.5416 9.00317 11.5549 8.93133 11.5541C8.85948 11.5533 8.78851 11.5383 8.72246 11.51L8.74216 11.464L8.72246 11.51C8.65661 11.4817 8.59695 11.4408 8.54687 11.3896M8.54687 11.3896C8.54673 11.3894 8.54659 11.3893 8.54645 11.3892L8.58225 11.3542L8.54731 11.39C8.54716 11.3899 8.54702 11.3897 8.54687 11.3896Z" fill="white" stroke="white" stroke-width="0.1"/>
</svg>
