<svg width="17" height="17" viewBox="0 0 17 17" fill="none" xmlns="http://www.w3.org/2000/svg">
<path fill-rule="evenodd" clip-rule="evenodd" d="M6.95145 1.44817C7.70902 0.183941 9.54098 0.183945 10.2986 1.44817L10.7575 2.21412C10.9048 2.45988 11.1956 2.58032 11.4735 2.51067L12.3396 2.29361C13.7693 1.93535 15.0646 3.23075 14.7064 4.66037L14.4893 5.52653C14.4197 5.80444 14.5401 6.0952 14.7859 6.24247L15.5518 6.70145C16.8161 7.45902 16.8161 9.29098 15.5518 10.0486L14.7859 10.5075C14.5401 10.6548 14.4197 10.9456 14.4893 11.2235L14.7064 12.0896C15.0646 13.5193 13.7693 14.8146 12.3396 14.4564L11.4735 14.2393C11.1956 14.1697 10.9048 14.2901 10.7575 14.5359L10.2986 15.3018C9.54098 16.5661 7.70902 16.5661 6.95145 15.3018L6.49247 14.5359C6.3452 14.2901 6.05445 14.1697 5.77653 14.2393L5.61844 13.6085L5.77653 14.2393L4.91037 14.4564C3.48074 14.8146 2.18535 13.5193 2.54361 12.0896L2.76067 11.2235C2.83032 10.9456 2.70988 10.6548 2.46412 10.5075L1.69817 10.0486C0.433941 9.29098 0.433945 7.45902 1.69817 6.70145L2.46412 6.24247C2.70988 6.0952 2.83032 5.80444 2.76067 5.52653L2.54361 4.66037C2.18535 3.23074 3.48075 1.93535 4.91037 2.29361L5.77653 2.51067C6.05444 2.58032 6.3452 2.45988 6.49247 2.21412L6.95145 1.44817ZM9.18285 2.11674C8.93033 1.69533 8.31967 1.69533 8.06715 2.11674L7.60817 2.88269C7.16636 3.61997 6.2941 3.98127 5.46036 3.77234L4.5942 3.55528C4.11766 3.43586 3.68586 3.86766 3.80528 4.3442L4.02234 5.21036C4.23127 6.0441 3.86997 6.91636 3.13269 7.35817L2.36674 7.81715C1.94533 8.06967 1.94533 8.68033 2.36674 8.93285L3.13269 9.39183C3.86997 9.83364 4.23127 10.7059 4.02234 11.5396L3.80528 12.4058C3.68586 12.8823 4.11766 13.3141 4.5942 13.1947L4.75228 13.8256L4.5942 13.1947L5.46036 12.9777C6.2941 12.7687 7.16636 13.13 7.60817 13.8673L8.06715 14.6333C8.31967 15.0547 8.93033 15.0547 9.18285 14.6333L9.64183 13.8673C10.0836 13.13 10.9559 12.7687 11.7896 12.9777L12.6558 13.1947C13.1323 13.3141 13.5641 12.8823 13.4447 12.4058L13.2277 11.5396C13.0187 10.7059 13.38 9.83364 14.1173 9.39183L14.8833 8.93285C15.3047 8.68033 15.3047 8.06967 14.8833 7.81715L14.1173 7.35817C13.38 6.91636 13.0187 6.0441 13.2277 5.21036L13.4447 4.3442C13.5641 3.86766 13.1323 3.43586 12.6558 3.55528L11.7896 3.77234C10.9559 3.98127 10.0836 3.61997 9.64183 2.88269L9.18285 2.11674ZM8.625 6.42398C7.54748 6.42398 6.67398 7.29748 6.67398 8.375C6.67398 9.45252 7.54748 10.326 8.625 10.326C9.70252 10.326 10.576 9.45252 10.576 8.375C10.576 7.29748 9.70252 6.42398 8.625 6.42398ZM5.3733 8.375C5.3733 6.57913 6.82913 5.1233 8.625 5.1233C10.4209 5.1233 11.8767 6.57913 11.8767 8.375C11.8767 10.1709 10.4209 11.6267 8.625 11.6267C6.82913 11.6267 5.3733 10.1709 5.3733 8.375Z" fill="#878D99"/>
</svg>
