<svg width="14" height="15" viewBox="0 0 14 15" fill="none" xmlns="http://www.w3.org/2000/svg">
<path d="M13.02 1.64669C13.4673 2.09402 13.7186 2.70073 13.7186 3.33335C13.7186 3.96598 13.4673 4.57269 13.02 5.02002L5.04133 13C4.85676 13.1847 4.62719 13.318 4.37533 13.3867L0.964661 14.3167C0.879654 14.3398 0.790063 14.3399 0.704955 14.3173C0.619847 14.2946 0.542243 14.2498 0.479995 14.1875C0.417747 14.1252 0.373065 14.0475 0.350471 13.9624C0.327877 13.8773 0.328172 13.7877 0.351327 13.7027L1.28133 10.292C1.35006 10.0402 1.48334 9.81059 1.66799 9.62602L9.64666 1.64669C10.094 1.19936 10.7007 0.948059 11.3333 0.948059C11.9659 0.948059 12.5727 1.19936 13.02 1.64669ZM8.99999 3.70669L2.37466 10.3334C2.31319 10.3949 2.26884 10.4714 2.24599 10.5554L1.54599 13.122L4.11266 12.422C4.19626 12.3986 4.27231 12.3538 4.33333 12.292L10.96 5.66669L8.99999 3.70669ZM10.3533 2.35336L9.70666 3.00002L11.6667 4.96002L12.3133 4.31335C12.5689 4.05255 12.7113 3.70141 12.7094 3.33625C12.7076 2.97109 12.5617 2.62142 12.3035 2.3632C12.0453 2.10499 11.6956 1.95912 11.3304 1.95727C10.9653 1.95543 10.6141 2.09777 10.3533 2.35336Z" fill="#545B7B"/>
</svg>
