<svg width="16" height="16" viewBox="0 0 16 16" fill="none" xmlns="http://www.w3.org/2000/svg">
<path d="M14.7725 0.977486C15.2758 1.48074 15.5585 2.16329 15.5585 2.87499C15.5585 3.58668 15.2758 4.26923 14.7725 4.77249L5.79652 13.75C5.58889 13.9577 5.33062 14.1077 5.04727 14.185L1.21027 15.2312C1.11464 15.2572 1.01385 15.2574 0.918105 15.2319C0.822359 15.2064 0.735054 15.156 0.665025 15.0859C0.594996 15.0158 0.544729 14.9284 0.51931 14.8327C0.493892 14.7369 0.494224 14.6361 0.520274 14.5405L1.56652 10.7035C1.64385 10.4201 1.79379 10.1619 2.00152 9.95424L10.9775 0.977486C11.4808 0.474245 12.1633 0.191528 12.875 0.191528C13.5867 0.191528 14.2693 0.474245 14.7725 0.977486ZM10.25 3.29499L2.79652 10.75C2.72737 10.8192 2.67748 10.9053 2.65177 10.9997L1.86427 13.8872L4.75177 13.0997C4.84582 13.0734 4.93137 13.023 5.00002 12.9535L12.455 5.49999L10.25 3.29499ZM11.7725 1.77249L11.045 2.49999L13.25 4.70499L13.9775 3.97749C14.2651 3.68408 14.4252 3.28905 14.4231 2.87825C14.421 2.46744 14.2569 2.07405 13.9664 1.78357C13.676 1.49308 13.2826 1.32897 12.8718 1.32689C12.461 1.32482 12.0659 1.48495 11.7725 1.77249Z" fill="white"/>
</svg>
