<svg width="16" height="18" viewBox="0 0 16 18" fill="none" xmlns="http://www.w3.org/2000/svg">
<path d="M7.23703 1.09661C7.47246 0.874021 7.78416 0.75 8.10816 0.75C8.43216 0.75 8.74386 0.874021 8.97929 1.09661L15.1216 6.9029C15.502 7.26175 15.7163 7.76262 15.7163 8.28505V15.348C15.7163 15.8524 15.5159 16.3362 15.1592 16.6929C14.8025 17.0496 14.3187 17.25 13.8143 17.25H11.2782C11.0283 17.25 10.7809 17.2008 10.5501 17.1051C10.3192 17.0094 10.1095 16.8692 9.93283 16.6925C9.7562 16.5157 9.61612 16.3059 9.52061 16.075C9.4251 15.844 9.37602 15.5966 9.37619 15.3467V12.1766C9.37619 12.0085 9.30939 11.8472 9.19049 11.7283C9.07159 11.6094 8.91032 11.5426 8.74217 11.5426H7.47415C7.306 11.5426 7.14473 11.6094 7.02583 11.7283C6.90693 11.8472 6.84013 12.0085 6.84013 12.1766V15.3467C6.84013 15.8511 6.63974 16.3349 6.28304 16.6916C5.92634 17.0483 5.44255 17.2487 4.93809 17.2487H2.40204C1.89759 17.2487 1.4138 17.0483 1.05709 16.6916C0.700393 16.3349 0.5 15.8511 0.5 15.3467V8.28378C0.5 7.76135 0.715565 7.26048 1.09597 6.90163L7.23703 1.09407V1.09661ZM8.10816 2.01719L1.96584 7.82476C1.90348 7.88387 1.85379 7.95504 1.81979 8.03395C1.78578 8.11286 1.76817 8.19786 1.76803 8.28378V15.3467C1.76803 15.5148 1.83482 15.6761 1.95373 15.795C2.07263 15.9139 2.23389 15.9807 2.40204 15.9807H4.93809C5.10624 15.9807 5.26751 15.9139 5.38641 15.795C5.50531 15.6761 5.57211 15.5148 5.57211 15.3467V12.1766C5.57211 11.6722 5.7725 11.1884 6.1292 10.8317C6.4859 10.475 6.96969 10.2746 7.47415 10.2746H8.74217C9.24663 10.2746 9.73042 10.475 10.0871 10.8317C10.4438 11.1884 10.6442 11.6722 10.6442 12.1766V15.3467C10.6442 15.5148 10.711 15.6761 10.8299 15.795C10.9488 15.9139 11.1101 15.9807 11.2782 15.9807H13.8143C13.9824 15.9807 14.1437 15.9139 14.2626 15.795C14.3815 15.6761 14.4483 15.5148 14.4483 15.3467V8.28378C14.4483 8.19764 14.4308 8.11241 14.3968 8.03327C14.3628 7.95413 14.313 7.88275 14.2505 7.82349L8.10816 2.01719Z" fill="#85899D"/>
</svg>
