<svg width="14" height="14" viewBox="0 0 14 14" fill="none" xmlns="http://www.w3.org/2000/svg">
<path fill-rule="evenodd" clip-rule="evenodd" d="M6.46179 11.5581C9.27639 11.5581 11.5581 9.27637 11.5581 6.46176C11.5581 3.64716 9.27639 1.36547 6.46179 1.36547C3.64719 1.36547 1.3655 3.64716 1.3655 6.46176C1.3655 9.27637 3.64719 11.5581 6.46179 11.5581ZM6.46179 12.5902C9.84644 12.5902 12.5902 9.84641 12.5902 6.46176C12.5902 3.07711 9.84644 0.333313 6.46179 0.333313C3.07714 0.333313 0.333344 3.07711 0.333344 6.46176C0.333344 9.84641 3.07714 12.5902 6.46179 12.5902Z" fill="#878D99"/>
<path fill-rule="evenodd" clip-rule="evenodd" d="M10.3748 10.29C10.5763 10.0884 10.9031 10.0884 11.1046 10.29L13.6003 12.7856C13.8018 12.9872 13.8018 13.3139 13.6003 13.5155C13.3987 13.717 13.072 13.717 12.8704 13.5155L10.3748 11.0198C10.1732 10.8183 10.1732 10.4915 10.3748 10.29Z" fill="#878D99"/>
</svg>
